<?xml version="1.0" encoding="UTF-8" standalone="no"?>
<svg
   version="1.1"
   x="0"
   y="0"
   width="100"
   height="100"
   viewBox="0 0 99.999998 100"
   id="svg2"
   inkscape:version="1.4 (1:1.4+202410161351+e7c3feb100)"
   sodipodi:docname="NeXus_Logo_dark_square.svg"
   xml:space="preserve"
   xmlns:inkscape="http://www.inkscape.org/namespaces/inkscape"
   xmlns:sodipodi="http://sodipodi.sourceforge.net/DTD/sodipodi-0.dtd"
   xmlns="http://www.w3.org/2000/svg"
   xmlns:svg="http://www.w3.org/2000/svg"
   xmlns:rdf="http://www.w3.org/1999/02/22-rdf-syntax-ns#"
   xmlns:cc="http://creativecommons.org/ns#"
   xmlns:dc="http://purl.org/dc/elements/1.1/"><metadata
     id="metadata23"><rdf:RDF><cc:Work
         rdf:about=""><dc:format>image/svg+xml</dc:format><dc:type
           rdf:resource="http://purl.org/dc/dcmitype/StillImage" /></cc:Work></rdf:RDF></metadata><defs
     id="defs21"><rect
       x="8.0341225"
       y="-52.158474"
       width="163.45422"
       height="162.78804"
       id="rect1174" /><rect
       x="-353.93756"
       y="100.12576"
       width="269.31363"
       height="59.85899"
       id="rect6838" /><filter
       style="color-interpolation-filters:sRGB"
       inkscape:label="Drop Shadow"
       id="filter1381"
       x="-0.033478562"
       y="-0.14011154"
       width="1.0831383"
       height="1.3105806"><feFlood
         flood-opacity="0.498039"
         flood-color="rgb(0,0,0)"
         result="flood"
         id="feFlood1371" /><feComposite
         in="flood"
         in2="SourceGraphic"
         operator="in"
         result="composite1"
         id="feComposite1373" /><feGaussianBlur
         in="composite1"
         stdDeviation="2.5"
         result="blur"
         id="feGaussianBlur1375" /><feOffset
         dx="2.9"
         dy="1.3"
         result="offset"
         id="feOffset1377" /><feComposite
         in="SourceGraphic"
         in2="offset"
         operator="over"
         result="composite2"
         id="feComposite1379" /></filter><rect
       x="-353.93756"
       y="100.12576"
       width="269.31363"
       height="59.85899"
       id="rect1104" /><filter
       style="color-interpolation-filters:sRGB"
       inkscape:label="Drop Shadow"
       id="filter1893"
       x="-0.033932298"
       y="-0.13663578"
       width="1.0791754"
       height="1.302876"><feFlood
         flood-opacity="0.498039"
         flood-color="rgb(0,0,0)"
         result="flood"
         id="feFlood1883" /><feComposite
         in="flood"
         in2="SourceGraphic"
         operator="in"
         result="composite1"
         id="feComposite1885" /><feGaussianBlur
         in="composite1"
         stdDeviation="2.5"
         result="blur"
         id="feGaussianBlur1887" /><feOffset
         dx="2"
         dy="1.3"
         result="offset"
         id="feOffset1889" /><feComposite
         in="SourceGraphic"
         in2="offset"
         operator="over"
         result="composite2"
         id="feComposite1891" /></filter><filter
       style="color-interpolation-filters:sRGB"
       inkscape:label="Drop Shadow"
       id="filter1490"><feFlood
         flood-opacity="0.498039"
         flood-color="rgb(128,138,255)"
         result="flood"
         id="feFlood1480" /><feComposite
         in="flood"
         in2="SourceGraphic"
         operator="in"
         result="composite1"
         id="feComposite1482" /><feGaussianBlur
         in="composite1"
         stdDeviation="2"
         result="blur"
         id="feGaussianBlur1484" /><feOffset
         dx="4"
         dy="2"
         result="offset"
         id="feOffset1486" /><feComposite
         in="SourceGraphic"
         in2="offset"
         operator="over"
         result="composite2"
         id="feComposite1488" /></filter><rect
       x="8.0341225"
       y="-52.158474"
       width="163.45422"
       height="162.78804"
       id="rect1448" /><rect
       x="8.0341225"
       y="-52.158474"
       width="163.45422"
       height="162.78804"
       id="rect1454" /><rect
       x="8.0341225"
       y="-52.158474"
       width="163.45422"
       height="162.78804"
       id="rect1460" /><rect
       x="8.0341225"
       y="-52.158474"
       width="163.45422"
       height="162.78804"
       id="rect1174-5" /><rect
       x="-353.93756"
       y="100.12576"
       width="269.31363"
       height="59.85899"
       id="rect6838-3" /><filter
       style="color-interpolation-filters:sRGB"
       inkscape:label="Drop Shadow"
       id="filter1381-5"
       x="-0.033478562"
       y="-0.14011154"
       width="1.0831383"
       height="1.3105806"><feFlood
         flood-opacity="0.498039"
         flood-color="rgb(0,0,0)"
         result="flood"
         id="feFlood1371-6" /><feComposite
         in="flood"
         in2="SourceGraphic"
         operator="in"
         result="composite1"
         id="feComposite1373-2" /><feGaussianBlur
         in="composite1"
         stdDeviation="2.5"
         result="blur"
         id="feGaussianBlur1375-9" /><feOffset
         dx="2.9"
         dy="1.3"
         result="offset"
         id="feOffset1377-1" /><feComposite
         in="SourceGraphic"
         in2="offset"
         operator="over"
         result="composite2"
         id="feComposite1379-2" /></filter><rect
       x="-353.93756"
       y="100.12576"
       width="269.31363"
       height="59.85899"
       id="rect1104-7" /><filter
       style="color-interpolation-filters:sRGB"
       inkscape:label="Drop Shadow"
       id="filter1893-0"
       x="-0.033932298"
       y="-0.13663578"
       width="1.0791754"
       height="1.302876"><feFlood
         flood-opacity="0.498039"
         flood-color="rgb(0,0,0)"
         result="flood"
         id="feFlood1883-9" /><feComposite
         in="flood"
         in2="SourceGraphic"
         operator="in"
         result="composite1"
         id="feComposite1885-3" /><feGaussianBlur
         in="composite1"
         stdDeviation="2.5"
         result="blur"
         id="feGaussianBlur1887-6" /><feOffset
         dx="2"
         dy="1.3"
         result="offset"
         id="feOffset1889-0" /><feComposite
         in="SourceGraphic"
         in2="offset"
         operator="over"
         result="composite2"
         id="feComposite1891-6" /></filter><filter
       style="color-interpolation-filters:sRGB"
       inkscape:label="Drop Shadow"
       id="filter1490-2"><feFlood
         flood-opacity="0.498039"
         flood-color="rgb(128,138,255)"
         result="flood"
         id="feFlood1480-6" /><feComposite
         in="flood"
         in2="SourceGraphic"
         operator="in"
         result="composite1"
         id="feComposite1482-1" /><feGaussianBlur
         in="composite1"
         stdDeviation="2"
         result="blur"
         id="feGaussianBlur1484-8" /><feOffset
         dx="4"
         dy="2"
         result="offset"
         id="feOffset1486-7" /><feComposite
         in="SourceGraphic"
         in2="offset"
         operator="over"
         result="composite2"
         id="feComposite1488-9" /></filter><rect
       x="8.0341225"
       y="-52.158474"
       width="163.45422"
       height="162.78804"
       id="rect1448-2" /><rect
       x="8.0341225"
       y="-52.158474"
       width="163.45422"
       height="162.78804"
       id="rect1454-0" /><rect
       x="8.0341225"
       y="-52.158474"
       width="163.45422"
       height="162.78804"
       id="rect1460-2" /></defs><sodipodi:namedview
     pagecolor="#000000"
     bordercolor="#666666"
     borderopacity="1"
     objecttolerance="10"
     gridtolerance="10"
     guidetolerance="10"
     inkscape:pageopacity="0"
     inkscape:pageshadow="2"
     inkscape:window-width="3440"
     inkscape:window-height="1368"
     id="namedview19"
     showgrid="false"
     inkscape:document-units="mm"
     units="mm"
     fit-margin-top="0"
     fit-margin-left="0"
     fit-margin-right="0"
     fit-margin-bottom="0"
     inkscape:zoom="5.8077193"
     inkscape:cx="12.741663"
     inkscape:cy="64.397052"
     inkscape:window-x="0"
     inkscape:window-y="0"
     inkscape:window-maximized="1"
     inkscape:current-layer="layer1"
     inkscape:pagecheckerboard="0"
     inkscape:document-rotation="0"
     inkscape:showpageshadow="0"
     inkscape:deskcolor="#505050" /><g
     inkscape:groupmode="layer"
     id="layer1"
     inkscape:label="Layer"
     style="display:inline"
     transform="translate(439.45502,71.542687)"><g
       id="g862"
       transform="matrix(1.1146921,0,0,1.1146921,50.402027,8.2053823)"><rect
         style="fill:#7b278e;fill-opacity:1;stroke:none;stroke-width:0.368467;stroke-miterlimit:4;stroke-dasharray:none;stroke-dashoffset:0;stroke-opacity:1"
         id="rect1342"
         width="89.710869"
         height="89.711403"
         x="-439.45502"
         y="-71.542686" /><g
         id="g1352"
         transform="matrix(1.1108758,0,0,1.1108758,-313.95046,6.2915716)"
         style="fill:#00006b;fill-opacity:1"><path
           style="fill:#ffffff;fill-opacity:1;stroke:none;stroke-width:0.913776"
           inkscape:connector-curvature="0"
           id="path1348"
           d="m -95.874506,-13.730499 c -2.369554,0 -2.369554,-0.696931 -2.369554,-10.663023 0,-10.593331 0.41815,-18.32925 0.41815,-20.071575 h 0.13938 l 19.792804,31.570913 c 0.836315,1.324167 1.254477,1.533246 1.742333,1.533246 0.278765,0 0.696927,-0.418159 0.906008,-1.254474 1.602936,-12.056882 2.578629,-23.347143 3.624034,-31.849685 0.696927,-6.760217 0.905999,-7.944997 2.439241,-7.944997 0.278775,0 1.254477,0.06969 1.602954,0.06969 0.487837,0 0.557531,-0.348464 0.557531,-0.836315 0,-0.557544 -0.06972,-0.836316 -0.487846,-0.836316 -1.881711,0 -3.972502,0.209079 -5.854204,0.209079 -1.951404,0 -4.460357,-0.209079 -6.481455,-0.209079 -0.55754,0 -0.696918,0.209079 -0.696918,0.836316 0,0.627236 0.278765,0.766622 0.836305,0.766622 h 1.742324 c 2.369566,0 2.369566,2.090788 2.369566,10.663023 0,6.411753 -0.975702,18.538329 -1.11509,21.813899 h -0.139378 l -19.862499,-32.40723 c -0.69694,-1.045395 -0.83632,-1.463552 -1.67263,-1.463552 -0.83632,0 -0.9757,0.418157 -0.9757,1.18478 0,0.906009 -1.53325,20.977584 -2.85742,30.943676 -0.906,6.760218 -1.18478,7.944999 -3.13618,7.944999 -0.27877,0 -1.25448,-0.06969 -1.60295,-0.06969 -0.48783,0 -0.55753,0.348464 -0.55753,0.836315 0,0.557544 0.0697,0.836316 0.48785,0.836316 2.09079,0 4.46035,-0.209079 6.55114,-0.209079 1.9514,0 4.46035,0.209079 6.481444,0.209079 0.55754,0 0.696937,-0.209079 0.696937,-0.836316 0,-0.627237 -0.278775,-0.766623 -0.836324,-0.766623 z" /><path
           style="fill:#ffffff;fill-opacity:1;stroke:none;stroke-width:0.913776"
           inkscape:connector-curvature="0"
           id="path1350"
           d="m -74.832279,-5.8487891 c 1.67262,0 3.345259,-0.2090792 5.087582,-0.2090792 2.578638,0 5.157276,0.2090792 7.735914,0.2090792 0.487855,0 0.696936,-0.2787719 0.696936,-0.8363156 0,-0.6272374 -0.209081,-0.8363155 -0.696936,-0.8363155 -0.348459,0 -1.324161,0.069691 -1.812008,0.069691 -1.254477,0 -1.602945,-0.4878511 -1.602945,-1.0453947 0,-1.3241666 7.248077,-12.8235051 8.502544,-14.8446011 0.557549,1.254473 5.575438,17.9807852 5.993591,17.9807852 0.418171,0 1.742332,-0.1393865 2.369566,-0.2787719 1.184783,-0.2787719 2.369566,-0.4181583 3.414952,-0.4181583 0.906009,0 1.812026,0 2.43926,0.069691 0.766621,0.069691 1.533242,0.1393864 1.742314,0.1393864 0.418171,0 0.627252,-0.4181583 0.627252,-0.9060083 0,-0.4878509 -0.209081,-0.6272374 -0.627252,-0.6969301 -1.463539,-0.2787718 -3.972484,-0.2787718 -4.669429,-1.7423238 -2.648323,-5.2966652 -7.248058,-15.6112242 -7.526833,-17.7717072 1.951404,-3.484648 15.471836,-18.538329 15.471836,-20.141266 0,-0.348465 -0.418152,-0.627237 -0.766612,-0.627237 -0.139396,0 -1.184783,0.06969 -2.64834,0.06969 -1.463558,0.06969 -3.414953,0.139386 -5.366357,0.139386 -0.418162,0 -0.906008,-0.06969 -1.32417,-0.139386 -0.487847,0 -0.906,-0.06969 -1.324161,-0.06969 -0.278775,0 -0.55755,0.418158 -0.55755,0.836316 0,0.557544 0.278775,0.836315 0.55755,0.836315 0.55754,0 1.533242,0 2.160475,-0.06969 0.836324,0 1.672639,0.557544 1.672639,1.602938 0,1.742324 -2.578647,5.436051 -8.641931,15.123373 -1.115089,-3.414955 -4.87851,-16.099075 -5.505744,-18.32925 -1.184783,0 -3.763421,0.209079 -5.505744,0.209079 -1.602936,0 -3.693727,-0.209079 -4.11188,-0.209079 -0.418171,0 -0.696937,0.209079 -0.696937,0.906009 0,0.487851 0.209081,0.627237 0.627243,0.69693 1.045387,0.278772 2.648322,0.278772 3.414953,1.742324 3.275565,6.829911 7.875301,18.259556 7.875301,18.956485 -1.11509,1.463553 -2.23017,2.927106 -5.157285,6.272368 -6.411744,7.387454 -9.060084,11.7084183 -11.150876,11.7084183 -0.278765,0 -0.557531,-0.069691 -0.836305,-0.069691 -0.418162,0 -0.55754,0.3484645 -0.55754,0.8363156 0,0.5575436 0.06972,0.8363155 0.696927,0.836315 z" /></g></g></g></svg>
