<?xml version="1.0" encoding="UTF-8" standalone="no"?>
<svg
   version="1.1"
   x="0"
   y="0"
   width="200"
   height="75"
   viewBox="0 0 199.99999 75.000001"
   id="svg2"
   inkscape:version="1.4 (1:1.4+202410161351+e7c3feb100)"
   sodipodi:docname="NeXus_Logo_dark.svg"
   xml:space="preserve"
   xmlns:inkscape="http://www.inkscape.org/namespaces/inkscape"
   xmlns:sodipodi="http://sodipodi.sourceforge.net/DTD/sodipodi-0.dtd"
   xmlns="http://www.w3.org/2000/svg"
   xmlns:svg="http://www.w3.org/2000/svg"
   xmlns:rdf="http://www.w3.org/1999/02/22-rdf-syntax-ns#"
   xmlns:cc="http://creativecommons.org/ns#"
   xmlns:dc="http://purl.org/dc/elements/1.1/"><metadata
     id="metadata23"><rdf:RDF><cc:Work
         rdf:about=""><dc:format>image/svg+xml</dc:format><dc:type
           rdf:resource="http://purl.org/dc/dcmitype/StillImage" /></cc:Work></rdf:RDF></metadata><defs
     id="defs21"><rect
       x="8.0341225"
       y="-52.158474"
       width="163.45422"
       height="162.78804"
       id="rect1174" /><rect
       x="-353.93756"
       y="100.12576"
       width="269.31363"
       height="59.85899"
       id="rect6838" /><filter
       style="color-interpolation-filters:sRGB"
       inkscape:label="Drop Shadow"
       id="filter1381"
       x="-0.033478562"
       y="-0.14011154"
       width="1.0831383"
       height="1.3105806"><feFlood
         flood-opacity="0.498039"
         flood-color="rgb(0,0,0)"
         result="flood"
         id="feFlood1371" /><feComposite
         in="flood"
         in2="SourceGraphic"
         operator="in"
         result="composite1"
         id="feComposite1373" /><feGaussianBlur
         in="composite1"
         stdDeviation="2.5"
         result="blur"
         id="feGaussianBlur1375" /><feOffset
         dx="2.9"
         dy="1.3"
         result="offset"
         id="feOffset1377" /><feComposite
         in="SourceGraphic"
         in2="offset"
         operator="over"
         result="composite2"
         id="feComposite1379" /></filter><rect
       x="-353.93756"
       y="100.12576"
       width="269.31363"
       height="59.85899"
       id="rect1104" /><filter
       style="color-interpolation-filters:sRGB"
       inkscape:label="Drop Shadow"
       id="filter1893"
       x="-0.033932298"
       y="-0.13663578"
       width="1.0791754"
       height="1.302876"><feFlood
         flood-opacity="0.498039"
         flood-color="rgb(0,0,0)"
         result="flood"
         id="feFlood1883" /><feComposite
         in="flood"
         in2="SourceGraphic"
         operator="in"
         result="composite1"
         id="feComposite1885" /><feGaussianBlur
         in="composite1"
         stdDeviation="2.5"
         result="blur"
         id="feGaussianBlur1887" /><feOffset
         dx="2"
         dy="1.3"
         result="offset"
         id="feOffset1889" /><feComposite
         in="SourceGraphic"
         in2="offset"
         operator="over"
         result="composite2"
         id="feComposite1891" /></filter><filter
       style="color-interpolation-filters:sRGB"
       inkscape:label="Drop Shadow"
       id="filter1490"><feFlood
         flood-opacity="0.498039"
         flood-color="rgb(128,138,255)"
         result="flood"
         id="feFlood1480" /><feComposite
         in="flood"
         in2="SourceGraphic"
         operator="in"
         result="composite1"
         id="feComposite1482" /><feGaussianBlur
         in="composite1"
         stdDeviation="2"
         result="blur"
         id="feGaussianBlur1484" /><feOffset
         dx="4"
         dy="2"
         result="offset"
         id="feOffset1486" /><feComposite
         in="SourceGraphic"
         in2="offset"
         operator="over"
         result="composite2"
         id="feComposite1488" /></filter><rect
       x="8.0341225"
       y="-52.158474"
       width="163.45422"
       height="162.78804"
       id="rect1448" /><rect
       x="8.0341225"
       y="-52.158474"
       width="163.45422"
       height="162.78804"
       id="rect1454" /><rect
       x="8.0341225"
       y="-52.158474"
       width="163.45422"
       height="162.78804"
       id="rect1460" /><rect
       x="8.0341225"
       y="-52.158474"
       width="163.45422"
       height="162.78804"
       id="rect1174-5" /><rect
       x="-353.93756"
       y="100.12576"
       width="269.31363"
       height="59.85899"
       id="rect6838-3" /><filter
       style="color-interpolation-filters:sRGB"
       inkscape:label="Drop Shadow"
       id="filter1381-5"
       x="-0.033478562"
       y="-0.14011154"
       width="1.0831383"
       height="1.3105806"><feFlood
         flood-opacity="0.498039"
         flood-color="rgb(0,0,0)"
         result="flood"
         id="feFlood1371-6" /><feComposite
         in="flood"
         in2="SourceGraphic"
         operator="in"
         result="composite1"
         id="feComposite1373-2" /><feGaussianBlur
         in="composite1"
         stdDeviation="2.5"
         result="blur"
         id="feGaussianBlur1375-9" /><feOffset
         dx="2.9"
         dy="1.3"
         result="offset"
         id="feOffset1377-1" /><feComposite
         in="SourceGraphic"
         in2="offset"
         operator="over"
         result="composite2"
         id="feComposite1379-2" /></filter><rect
       x="-353.93756"
       y="100.12576"
       width="269.31363"
       height="59.85899"
       id="rect1104-7" /><filter
       style="color-interpolation-filters:sRGB"
       inkscape:label="Drop Shadow"
       id="filter1893-0"
       x="-0.033932298"
       y="-0.13663578"
       width="1.0791754"
       height="1.302876"><feFlood
         flood-opacity="0.498039"
         flood-color="rgb(0,0,0)"
         result="flood"
         id="feFlood1883-9" /><feComposite
         in="flood"
         in2="SourceGraphic"
         operator="in"
         result="composite1"
         id="feComposite1885-3" /><feGaussianBlur
         in="composite1"
         stdDeviation="2.5"
         result="blur"
         id="feGaussianBlur1887-6" /><feOffset
         dx="2"
         dy="1.3"
         result="offset"
         id="feOffset1889-0" /><feComposite
         in="SourceGraphic"
         in2="offset"
         operator="over"
         result="composite2"
         id="feComposite1891-6" /></filter><filter
       style="color-interpolation-filters:sRGB"
       inkscape:label="Drop Shadow"
       id="filter1490-2"><feFlood
         flood-opacity="0.498039"
         flood-color="rgb(128,138,255)"
         result="flood"
         id="feFlood1480-6" /><feComposite
         in="flood"
         in2="SourceGraphic"
         operator="in"
         result="composite1"
         id="feComposite1482-1" /><feGaussianBlur
         in="composite1"
         stdDeviation="2"
         result="blur"
         id="feGaussianBlur1484-8" /><feOffset
         dx="4"
         dy="2"
         result="offset"
         id="feOffset1486-7" /><feComposite
         in="SourceGraphic"
         in2="offset"
         operator="over"
         result="composite2"
         id="feComposite1488-9" /></filter><rect
       x="8.0341225"
       y="-52.158474"
       width="163.45422"
       height="162.78804"
       id="rect1448-2" /><rect
       x="8.0341225"
       y="-52.158474"
       width="163.45422"
       height="162.78804"
       id="rect1454-0" /><rect
       x="8.0341225"
       y="-52.158474"
       width="163.45422"
       height="162.78804"
       id="rect1460-2" /></defs><sodipodi:namedview
     pagecolor="#000000"
     bordercolor="#666666"
     borderopacity="1"
     objecttolerance="10"
     gridtolerance="10"
     guidetolerance="10"
     inkscape:pageopacity="0"
     inkscape:pageshadow="2"
     inkscape:window-width="3440"
     inkscape:window-height="1368"
     id="namedview19"
     showgrid="false"
     inkscape:document-units="mm"
     units="mm"
     fit-margin-top="0"
     fit-margin-left="0"
     fit-margin-right="0"
     fit-margin-bottom="0"
     inkscape:zoom="6.4441154"
     inkscape:cx="116.23007"
     inkscape:cy="76.814267"
     inkscape:window-x="0"
     inkscape:window-y="0"
     inkscape:window-maximized="1"
     inkscape:current-layer="layer1"
     inkscape:pagecheckerboard="0"
     inkscape:document-rotation="0"
     inkscape:showpageshadow="0"
     inkscape:deskcolor="#505050" /><g
     inkscape:groupmode="layer"
     id="layer1"
     inkscape:label="Layer"
     style="display:inline"
     transform="translate(219.45502,-34.27417)"><rect
       style="fill:#000000;fill-opacity:1;stroke:none;stroke-width:0.350443;stroke-miterlimit:4;stroke-dasharray:none;stroke-dashoffset:0;stroke-opacity:1"
       id="rect1305"
       width="187.22943"
       height="50.432899"
       x="-206.68445"
       y="46.720062" /><rect
       y="34.27417"
       x="-219.45502"
       height="75"
       width="167.09956"
       id="rect1307"
       style="fill:#808080;fill-opacity:1;stroke:none;stroke-width:0.349687;stroke-miterlimit:4;stroke-dasharray:none;stroke-dashoffset:0;stroke-opacity:1" /><rect
       y="46.720062"
       x="-206.68445"
       height="50.432899"
       width="187.22943"
       id="rect1309"
       style="fill:#7a1192;fill-opacity:0.8;stroke:none;stroke-width:0.350443;stroke-miterlimit:4;stroke-dasharray:none;stroke-dashoffset:0;stroke-opacity:1" /><g
       id="g1390"
       transform="matrix(0.98902744,0,0,0.98902744,-219.99402,-100.64588)"
       style="fill:#ffffff;fill-opacity:1"><path
         d="m 180.35847,196.19411 c 7.13717,0 13.08481,-5.52781 13.08481,-10.98565 0,-8.04681 -12.595,-7.41706 -12.595,-13.8545 0,-2.23912 1.7493,-4.68814 5.31789,-4.68814 3.35867,0 5.87767,1.67933 5.87767,3.14875 0,0.83966 -0.62975,1.60936 -0.62975,2.09916 0,0.27989 0.55978,0.41984 0.97961,0.41984 0.4898,0 0.34986,-0.69972 0.4898,-1.18953 0.41984,-2.44903 2.72892,-5.94764 2.72892,-6.57739 0,-0.55978 -0.83966,-0.55978 -3.42864,-0.55978 -7.62697,0 -16.02364,3.00881 -16.02364,10.70575 0,2.72892 1.11955,3.84848 3.42864,5.45784 4.2683,2.79889 9.37628,4.26831 9.37628,8.53661 0,3.00881 -2.72892,4.82809 -5.59778,4.82809 -3.70853,0 -8.25673,-2.58897 -8.25673,-4.5482 0,-0.83966 0.69973,-2.93883 0.69973,-3.35866 0,-0.41984 -0.20992,-0.48981 -0.69973,-0.48981 -0.90964,0 -0.90964,0.55978 -0.90964,1.46942 0,3.0088 -2.23911,6.64736 -2.23911,7.13717 0,0.97961 4.75811,2.44903 8.39667,2.44903 z"
         id="path1376"
         inkscape:connector-curvature="0"
         style="fill:#ffffff;fill-opacity:1;stroke:none" /><path
         d="m 28.07862,193.81505 c -2.37906,0 -2.37906,-0.69972 -2.37906,-10.70576 0,-10.63578 0.41984,-18.4027 0.41984,-20.152 h 0.13994 l 19.87212,31.69743 c 0.83967,1.32947 1.2595,1.53939 1.74931,1.53939 0.27989,0 0.69972,-0.41984 0.90964,-1.25951 1.60936,-12.10519 2.58897,-23.4407 3.63855,-31.97731 0.69973,-6.78731 0.90964,-7.97684 2.44903,-7.97684 0.27989,0 1.2595,0.07 1.60936,0.07 0.48981,0 0.55978,-0.34986 0.55978,-0.83967 0,-0.55978 -0.07,-0.83966 -0.4898,-0.83966 -1.88925,0 -3.98842,0.20991 -5.87767,0.20991 -1.95923,0 -4.47823,-0.20991 -6.50742,-0.20991 -0.55978,0 -0.69972,0.20991 -0.69972,0.83966 0,0.62975 0.27989,0.7697 0.83966,0.7697 h 1.74931 c 2.37906,0 2.37906,2.09916 2.37906,10.70575 0,6.43745 -0.97962,18.61262 -1.11956,21.90132 h -0.13994 l -19.9421,-32.53713 c -0.69972,-1.04958 -0.83966,-1.46942 -1.67933,-1.46942 -0.83967,0 -0.97961,0.41984 -0.97961,1.18953 0,0.90964 -1.53939,21.06165 -2.86886,31.06768 -0.90964,6.78731 -1.18953,7.97684 -3.14876,7.97684 -0.27988,0 -1.2595,-0.07 -1.60936,-0.07 -0.4898,0 -0.55978,0.34986 -0.55978,0.83967 0,0.55977 0.07,0.83966 0.48981,0.83966 2.09917,0 4.47822,-0.20991 6.57739,-0.20991 1.95923,0 4.47823,0.20991 6.50742,0.20991 0.55978,0 0.69972,-0.20991 0.69972,-0.83966 0,-0.62976 -0.27988,-0.7697 -0.83966,-0.7697 z"
         id="path1368"
         inkscape:connector-curvature="0"
         style="fill:#ffffff;fill-opacity:1;stroke:none" /><path
         d="m 71.91177,196.19411 c 4.75812,0 10.56581,-4.47823 10.56581,-5.10798 0,-0.20992 -0.55977,-0.76969 -0.76969,-0.76969 -0.55978,0 -1.74931,1.67933 -4.82809,1.67933 -6.99722,0 -8.74653,-5.038 -8.74653,-9.86609 0,-0.62975 0.07,-1.11955 0.13995,-1.67933 0.62975,-0.07 1.18953,-0.07 1.81928,-0.07 3.63855,0 9.93605,0.55978 11.19556,0.62975 1.53938,-1.32947 3.49861,-2.37906 3.49861,-2.79889 0,-0.20992 -0.07,-0.27989 -0.27989,-0.27989 -0.41983,0 -3.7785,0.27989 -6.22753,0.27989 h -5.24792 v -0.13995 c 5.73772,-3.42864 11.54542,-5.45783 11.54542,-10.77572 0,-2.37906 -1.67933,-3.2887 -3.70853,-3.2887 -7.90686,0 -17.63301,8.04681 -17.63301,22.60104 0,5.8077 3.2887,9.5862 8.67656,9.5862 z m 3.98842,-28.7586 c 1.74931,0 2.79889,0.97961 2.79889,2.23911 0,4.19834 -5.73772,7.27712 -10.28592,8.95645 0.20992,-1.2595 2.16914,-11.19556 7.48703,-11.19556 z"
         id="path1370"
         inkscape:connector-curvature="0"
         style="fill:#ffffff;fill-opacity:1;stroke:none" /><path
         d="m 91.2212,195.7043 c 1.67933,0 3.35867,-0.20992 5.10797,-0.20992 2.58898,0 5.17795,0.20992 7.76692,0.20992 0.48981,0 0.69973,-0.27989 0.69973,-0.83967 0,-0.62975 -0.20992,-0.83966 -0.69973,-0.83966 -0.34986,0 -1.32947,0.07 -1.81927,0.07 -1.2595,0 -1.60937,-0.48981 -1.60937,-1.04959 0,-1.32947 7.27712,-12.87489 8.53662,-14.90409 0.55978,1.2595 5.59778,18.05284 6.01761,18.05284 0.41984,0 1.74931,-0.13994 2.37906,-0.27989 1.18953,-0.27988 2.37906,-0.41983 3.42864,-0.41983 0.90964,0 1.81928,0 2.44903,0.07 0.76969,0.07 1.53939,0.13995 1.7493,0.13995 0.41984,0 0.62976,-0.41984 0.62976,-0.90964 0,-0.48981 -0.20992,-0.62975 -0.62976,-0.69973 -1.46941,-0.27989 -3.98841,-0.27989 -4.68814,-1.7493 -2.65894,-5.31789 -7.27711,-15.67379 -7.557,-17.84293 1.95922,-3.49861 15.53384,-18.61262 15.53384,-20.22198 0,-0.34986 -0.41983,-0.62975 -0.76969,-0.62975 -0.13995,0 -1.18953,0.07 -2.65895,0.07 -1.46942,0.07 -3.42864,0.13995 -5.38786,0.13995 -0.41984,0 -0.90964,-0.07 -1.32948,-0.13995 -0.4898,0 -0.90963,-0.07 -1.32947,-0.07 -0.27989,0 -0.55978,0.41984 -0.55978,0.83967 0,0.55978 0.27989,0.83967 0.55978,0.83967 0.55978,0 1.53939,0 2.16914,-0.07 0.83967,0 1.67934,0.55977 1.67934,1.60936 0,1.7493 -2.58898,5.45783 -8.67656,15.18398 -1.11956,-3.42864 -4.89806,-16.16359 -5.52781,-18.40271 -1.18953,0 -3.7785,0.20992 -5.52781,0.20992 -1.60936,0 -3.70853,-0.20992 -4.12836,-0.20992 -0.41984,0 -0.69973,0.20992 -0.69973,0.90964 0,0.48981 0.20992,0.62975 0.62976,0.69973 1.04958,0.27989 2.65894,0.27989 3.42864,1.7493 3.28869,6.85728 7.90686,18.33273 7.90686,19.03245 -1.11956,1.46942 -2.23911,2.93884 -5.17795,6.29751 -6.43744,7.41706 -9.09639,11.75534 -11.19556,11.75534 -0.27989,0 -0.55977,-0.07 -0.83966,-0.07 -0.41984,0 -0.55978,0.34986 -0.55978,0.83966 0,0.55978 0.07,0.83967 0.69972,0.83967 z"
         id="path1372"
         inkscape:connector-curvature="0"
         style="fill:#ffffff;fill-opacity:1;stroke:none" /><path
         d="m 155.05559,164.56665 c -0.27989,8.46664 -8.39667,26.51948 -12.24515,26.51948 -1.32947,0 -1.81928,-1.2595 -1.81928,-3.84847 0,-5.45784 4.12837,-22.60104 4.12837,-22.67101 0,-0.20992 -0.13995,-0.55978 -0.41984,-0.55978 -0.27989,0 -0.62975,0 -2.09916,0.13994 -1.46942,0.13995 -2.72892,0.20992 -3.63856,0.20992 -0.62975,0 -1.32947,0 -1.60936,-0.07 -0.27989,-0.07 -0.41984,-0.07 -0.55978,-0.07 -0.34986,0 -0.55978,0.20992 -0.55978,0.83967 0,0.55978 0.20992,0.76969 0.55978,0.76969 0.27989,0 0.83967,-0.13994 1.11956,-0.13994 0.83966,0 1.2595,0.4898 1.2595,1.95922 0,5.8077 -3.07878,22.46109 -3.07878,24.77018 0,0.33321 0.0497,1.9431 -0.39313,3.72131 -0.68162,2.73686 -2.81599,7.18344 -2.79899,8.38228 0.009,0.65177 0.47406,1.84886 1.34907,2.1685 0.97541,0.35631 2.39689,-0.78885 2.61048,-1.43038 0.60515,-1.81767 -0.35761,-4.78946 0.40269,-9.35632 0.30181,0.18822 0.67633,0.29311 1.13896,0.29311 6.08759,0 13.22476,-14.27434 14.48426,-16.93329 l 0.13994,0.13995 c -0.62975,5.17795 -1.7493,10.77573 -1.7493,16.16359 0,0.41983 0.07,0.62975 0.34986,0.62975 0.27989,0 6.64736,-1.67933 9.09639,-1.67933 0.76969,0 0.83967,-0.34987 0.83967,-0.97962 0,-0.27989 -0.20992,-0.62975 -0.55978,-0.62975 -0.7697,0 -0.97961,0.20992 -1.95922,0.20992 -2.30909,0 -2.93884,-2.23911 -2.93884,-6.57739 0,-8.18675 3.00881,-20.4319 3.42864,-22.18121 z"
         id="path1374"
         inkscape:connector-curvature="0"
         style="fill:#ffffff;fill-opacity:1;stroke:none"
         sodipodi:nodetypes="cssssssssssssssssscsccssssssscc" /></g></g></svg>
